# xmcd
#
# Track frame offsets: 
#        150
#        16682
#        27841
#        40389
#        55707
#        70060
#        85135
#        108777
#        118595
#        131114
#        152535
#        165935
#        178280
#        195061
#        213504
#        228216
#        240558
#        257053
#        275234
#        286374
#
# Disc length: 3980 seconds
#
# Revision: 1
# Processed by: cddbd v1.5.2PL0 Copyright (c) Steve Scherf et al.
# Submitted via: ExactAudioCopyFreeDBPlugin 1.0
#
DISCID=070f8a14
DTITLE=Various Artist - The Very Best Of Jazz Divas
DYEAR=2011
DGENRE=Jazz
TTITLE0=Ella Fitzgerald - Moonlight In Vermont
TTITLE1=Nina Simone - He Needs Me
TTITLE2=Julie Lennon - Cry Me A River
TTITLE3=Billie Holiday - I'm A Fool To Want You
TTITLE4=Dinah Shore  - Thet Old Feeling
TTITLE5=Peggy Lee  - Fever
TTITLE6=Helen Merrill - Don't Explain
TTITLE7=Nancy Wilson - The More I See You
TTITLE8=Blossom Dearie - Lover Man
TTITLE9=Jeri Southern - It's All Ritght With Me
TTITLE10=Rosemary Clooney - Sophisticated Lady
TTITLE11=Anity O'Day - Springs Is Here
TTITLE12=Chris Connor  - The Lady Sings The Blues
TTITLE13=Carmen McRae - How Long Has This Been Going On
TTITLE14=Sara Vaughan - Summertime
TTITLE15=Judy Garland - Danny Boy
TTITLE16=Lena Horne - Everytime We Say Goodbye
TTITLE17=Toni Tennille - I Got It Bad And That Ain't Good
TTITLE18=June Christy - Baubles, Bangles And Beads
TTITLE19=Abbey Lincoln - Softly As In A Morning Sunrise
EXTD=YEAR: 2011
EXTT0=
EXTT1=
EXTT2=
EXTT3=
EXTT4=
EXTT5=
EXTT6=
EXTT7=
EXTT8=
EXTT9=
EXTT10=
EXTT11=
EXTT12=
EXTT13=
EXTT14=
EXTT15=
EXTT16=
EXTT17=
EXTT18=
EXTT19=
PLAYORDER=
